# xmcd
#
# Track frame offsets:
#	150
#	18005
#	33393
#	49857
#	64918
#	76385
#	93519
#	109820
#	122142
#	135669
#	150115
#	165061
#	182483
#	194765
#	204058
#	217256
#
# Disc length: 3112 seconds
#
# Revision: 0
# Processed by: cddbd v1.5.2PL0 Copyright (c) Steve Scherf et al.
# Submitted via: audiograbber 1.83.01
#
DISCID=cd0c2610
DTITLE=Sparks, Larry - 40
DYEAR=2005
DGENRE=Bluegrass
TTITLE0=Georgia Peaches (with Andy Griggs)
TTITLE1=City Folks Call Us Poor (with Sharon White-Skaggs and Cheryl White)
TTITLE2=John Deere Tractor (with Alison Krauss and Dan Tyminski)
TTITLE3=Blues Stay Away From Me (with Vince Gill)
TTITLE4=1-800-DO-U-CARE (with Rhonda Vincent)
TTITLE5=Where the Sweet Water Flows (with The Isaacs)
TTITLE6=Tennessee 1949 (with Kevin Denney, Carl Jackson and Larry Cordle)
TTITLE7=I Need Jesus (with The Marshall Family)
TTITLE8=Sharecropper's Son (with Ralph Stanley and Ricky Skaggs)
TTITLE9=Love Please Stay (with Rebecca Lynn Howard)
TTITLE10=Listening to the Wind (with Paul Williams)
TTITLE11=I Want You to Meet My Friend (with Tom T. Hall)
TTITLE12=Carter's Blues (Guitar Salute with Vince Gill, Jim Hurst, Kenny Smith 
TTITLE12=& Tim Stafford)
TTITLE13=It's Too Late to Walk the Floor (with Don Rigsby and Chris Jones)
TTITLE14=Brand New Broken Heart (with Russell Moore and Ronnie Bowman)
TTITLE15=New Highway
EXTD=
EXTT0=
EXTT1=
EXTT2=
EXTT3=
EXTT4=
EXTT5=
EXTT6=
EXTT7=
EXTT8=
EXTT9=
EXTT10=
EXTT11=
EXTT12=
EXTT13=
EXTT14=
EXTT15=
PLAYORDER=
